<svg width="908" height="540" viewBox="0 0 908 540" fill="none" xmlns="http://www.w3.org/2000/svg">
<g clip-path="url(#clip0)">
<path d="M63.7999 409.49C68.2899 402 75.5699 396.7 81.4499 390.25C120.74 347.14 87.4499 271.56 119.09 222.49C137.2 194.39 172.92 181.49 190.49 153.08C204.28 130.76 204.74 102.17 218.05 79.5602C224.102 69.4507 232.502 60.9488 242.537 54.7744C252.572 48.6001 263.948 44.9352 275.7 44.0902C292.34 43.0902 308.7 47.8302 324.88 51.8802C374.8 64.3502 431.74 69.0002 473.88 39.2802C495.66 23.9102 514.88 -0.849843 541.45 0.0301565C567.8 0.900157 586.61 27.1702 612.15 33.7202C623.46 36.6202 635.37 35.4502 646.93 33.8502C670.72 30.5454 694.234 25.4883 717.28 18.7202C745.2 10.5102 775.7 -0.119842 802.28 11.7202C836.51 26.9202 846.28 71.3002 844.5 108.92C843.59 127.85 841.27 148.41 851.5 164.32C856.17 171.57 863.05 177.1 868.24 183.97C875.59 193.68 879.24 205.62 882.8 217.29C897.8 266.61 912.35 321.71 889.67 367.94C887.88 371.59 885.85 375.19 884.98 379.17C882.43 390.72 889.98 401.73 895.7 412.06C908.01 434.24 912.95 462.34 901.55 485.06C890.15 507.78 858.99 520.36 837.95 506.34C831.19 501.85 826.02 495.21 819.12 490.96C806.88 483.42 791 484.56 777.59 489.68C764.18 494.8 752.46 503.36 740.08 510.72C704.477 531.665 663.527 541.745 622.27 539.72C572.11 537.18 524.72 516.9 475.74 505.72C413.84 491.57 349.74 492.01 286.24 492.51C259.92 492.72 233.44 493.28 207.38 497.31C187.24 500.43 157.76 517.7 138.1 512.46C120.1 507.66 95.7799 484.46 82.2799 471.92C66.1699 456.99 50.7099 431.29 63.7999 409.49Z" fill="#D4DBDD"/>
<g opacity="0.5">
<path opacity="0.5" d="M736.3 469.82C736.3 469.82 479.81 463.66 397.71 463.66C315.61 463.66 80.61 469.82 80.61 469.82C36.09 469.82 0 431.93 0 385.18C0 338.43 36.09 300.54 80.61 300.54C80.61 300.54 318.68 311.82 400.61 311.82C482.54 311.82 736.27 300.54 736.27 300.54C780.79 300.54 816.89 338.43 816.89 385.18C816.89 431.93 780.82 469.82 736.3 469.82Z" fill="url(#paint0_linear)"/>
</g>
<g filter="url(#filter0_d)">
<path d="M810.19 384.21C810.223 405.355 801.873 425.65 786.97 440.65C779.632 448.06 770.897 453.94 761.271 457.952C751.645 461.963 741.319 464.026 730.89 464.02C730.89 464.02 478.62 458.21 397.89 458.21C351.81 458.21 256.77 460.1 183.65 461.72L149.1 462.51L111.51 463.39C95.5901 463.77 86.0201 464.02 86.0201 464.02C83.0396 464.017 80.0615 463.847 77.1001 463.51C37.5201 459.05 6.73008 425.25 6.73008 384.21C6.6975 363.069 15.0475 342.776 29.9501 327.78C37.2873 320.372 46.0206 314.492 55.6449 310.481C65.2692 306.469 75.5933 304.406 86.0201 304.41L110.32 305.49C119.61 305.89 131.19 306.39 144.4 306.94C155.71 307.42 168.22 307.94 181.48 308.47C192.41 308.91 203.85 309.37 215.58 309.82C283.58 312.45 360.94 315.05 400.78 315.05C481.39 315.05 730.91 304.41 730.91 304.41C774.69 304.41 810.19 340.14 810.19 384.21Z" fill="#940000"/>
</g>
<g opacity="0.1">
<path opacity="0.1" d="M651.38 306.94L684.27 463.39C700.19 463.77 709.76 464.02 709.76 464.02C712.737 464.017 715.712 463.847 718.67 463.51L685.46 305.51C676.17 305.89 664.59 306.39 651.38 306.94Z" fill="white"/>
</g>
<g opacity="0.1">
<path opacity="0.1" d="M580.2 309.82L612.13 461.72L646.68 462.51L614.3 308.51C603.37 308.91 591.89 309.37 580.2 309.82Z" fill="white"/>
</g>
<g opacity="0.1">
<path opacity="0.1" d="M144.39 306.94L111.5 463.39C95.5798 463.77 86.0098 464.02 86.0098 464.02C83.0293 464.017 80.0513 463.846 77.0898 463.51L110.31 305.51C119.6 305.89 131.18 306.39 144.39 306.94Z" fill="white"/>
</g>
<g opacity="0.1">
<path opacity="0.1" d="M215.57 309.82L183.64 461.72L149.09 462.51L181.47 308.51C192.4 308.91 203.89 309.37 215.57 309.82Z" fill="white"/>
</g>
<path d="M327.872 404.577H358.682V418H366.225V404.577H375.173V397.545H366.225V352.545H356.637L327.872 398.057V404.577ZM358.682 397.545H336.438V397.034L358.171 362.645H358.682V397.545ZM408.5 418.895C422.946 418.895 431.256 406.654 431.256 385.273C431.256 364.051 422.818 351.651 408.5 351.651C394.182 351.651 385.744 364.051 385.744 385.273C385.744 406.654 394.054 418.895 408.5 418.895ZM408.5 411.864C398.976 411.864 393.415 402.308 393.415 385.273C393.415 368.27 399.04 358.554 408.5 358.554C417.96 358.554 423.585 368.27 423.585 385.273C423.585 402.308 418.024 411.864 408.5 411.864ZM441.866 404.577H472.676V418H480.219V404.577H489.168V397.545H480.219V352.545H470.631L441.866 398.057V404.577ZM472.676 397.545H450.432V397.034L472.165 362.645H472.676V397.545Z" fill="#680D0D"/>
</g>
<defs>
<filter id="filter0_d" x="-13.27" y="292.41" width="843.46" height="199.61" filterUnits="userSpaceOnUse" color-interpolation-filters="sRGB">
<feFlood flood-opacity="0" result="BackgroundImageFix"/>
<feColorMatrix in="SourceAlpha" type="matrix" values="0 0 0 0 0 0 0 0 0 0 0 0 0 0 0 0 0 0 127 0"/>
<feOffset dy="8"/>
<feGaussianBlur stdDeviation="10"/>
<feColorMatrix type="matrix" values="0 0 0 0 0 0 0 0 0 0 0 0 0 0 0 0 0 0 0.15 0"/>
<feBlend mode="normal" in2="BackgroundImageFix" result="effect1_dropShadow"/>
<feBlend mode="normal" in="SourceGraphic" in2="effect1_dropShadow" result="shape"/>
</filter>
<linearGradient id="paint0_linear" x1="408.46" y1="469.82" x2="408.46" y2="300.54" gradientUnits="userSpaceOnUse">
<stop stop-color="#808080" stop-opacity="0.25"/>
<stop offset="0.54" stop-color="#808080" stop-opacity="0.12"/>
<stop offset="1" stop-color="#808080" stop-opacity="0.1"/>
</linearGradient>
<clipPath id="clip0">
<rect width="908" height="540" fill="white"/>
</clipPath>
</defs>
</svg>
