<svg width="40" height="66" viewBox="0 0 40 66" fill="none" xmlns="http://www.w3.org/2000/svg">
<path d="M20.0052 66C20.7202 65.972 21.5466 65.6777 22.0678 65.1875L39.0686 49.1875C40.0429 48.1033 40.4451 46.0243 39.3186 44.8125C38.2091 43.6189 36.0573 43.6544 34.9434 44.8435L23.0053 56.0935V3C23.0053 1.3432 21.6621 0 20.0052 0C18.3483 0 17.0051 1.3432 17.0051 3V56.0935L5.06705 44.8435C4.04155 43.8198 1.81405 43.6306 0.691847 44.8125C-0.430253 45.9941 -0.0717539 48.1478 0.941946 49.1875L17.9426 65.1875C18.5244 65.735 19.207 66.0018 20.0052 66V66Z" fill="#940000"/>
</svg>
