<svg width="26" height="23" viewBox="0 0 26 23" fill="none" xmlns="http://www.w3.org/2000/svg">
<path d="M19.3038 10.3595C19.1872 10.1714 19.0245 10.0161 18.8312 9.90849C18.6378 9.80085 18.4202 9.74435 18.1989 9.74435C17.9776 9.74435 17.76 9.80085 17.5666 9.90849C17.3733 10.0161 17.2106 10.1714 17.094 10.3595L15.7942 12.4782L11.5177 5.19905C11.4026 5.00508 11.239 4.8444 11.043 4.73279C10.847 4.62119 10.6253 4.5625 10.3998 4.5625C10.1742 4.5625 9.95259 4.62119 9.75659 4.73279C9.5606 4.8444 9.39701 5.00508 9.28192 5.19905L0.18295 20.7973C0.0691904 20.9943 0.00913625 21.2177 0.00879056 21.4453C0.00844488 21.6728 0.0678195 21.8964 0.18098 22.0938C0.294141 22.2911 0.457123 22.4553 0.653638 22.57C0.850153 22.6846 1.07332 22.7457 1.30082 22.7471H24.6982C24.9304 22.7475 25.1586 22.6858 25.3588 22.5682C25.5591 22.4506 25.7243 22.2815 25.8371 22.0785C25.9498 21.8754 26.0062 21.6459 26.0002 21.4137C25.9942 21.1816 25.9261 20.9552 25.803 20.7583L19.3038 10.3595ZM10.9847 20.1474H3.56257L10.3998 8.44868L14.2214 14.9479L12.5965 17.5476L10.9847 20.1474Z" fill="#202020"/>
<path d="M21.5311 7.31223C22.2542 7.31223 22.9611 7.09781 23.5623 6.69607C24.1636 6.29433 24.6322 5.72332 24.9089 5.05525C25.1856 4.38719 25.2581 3.65206 25.117 2.94285C24.9759 2.23363 24.6277 1.58217 24.1164 1.07085C23.6051 0.559536 22.9536 0.211325 22.2444 0.0702529C21.5352 -0.0708192 20.8 0.00158412 20.132 0.278307C19.4639 0.55503 18.8929 1.02364 18.4912 1.62489C18.0894 2.22613 17.875 2.93301 17.875 3.65612C17.875 4.62578 18.2602 5.55573 18.9459 6.24138C19.6315 6.92704 20.5615 7.31223 21.5311 7.31223ZM21.5311 1.82806C21.8927 1.82806 22.2461 1.93527 22.5467 2.13614C22.8474 2.33701 23.0817 2.62252 23.22 2.95655C23.3584 3.29058 23.3946 3.65815 23.324 4.01275C23.2535 4.36736 23.0794 4.69309 22.8237 4.94875C22.5681 5.20441 22.2424 5.37851 21.8878 5.44905C21.5331 5.51959 21.1656 5.48339 20.8315 5.34502C20.4975 5.20666 20.212 4.97236 20.0111 4.67173C19.8103 4.37111 19.7031 4.01767 19.7031 3.65612C19.7031 3.17129 19.8957 2.70631 20.2385 2.36349C20.5813 2.02066 21.0463 1.82806 21.5311 1.82806Z" fill="#202020"/>
<path d="M10.5621 4.06323C10.0746 4.06323 9.91214 4.40299 9.58715 4.74275L0.162494 20.8814C3.63203e-08 21.0513 0 21.391 0 21.5609C0 22.4103 0.649976 22.7501 1.13746 22.7501H19.9868C20.6368 22.7501 21.1242 22.4103 21.1242 21.5609C21.1242 21.2211 21.1242 21.2211 20.9617 20.8814L11.6996 4.74275C11.3746 4.40299 11.0496 4.06323 10.5621 4.06323ZM10.5621 6.61144L15.9244 15.9548H14.6245L12.1871 13.4066L10.5621 15.9548L8.93718 13.4066L6.49976 15.9548H5.03732L10.5621 6.61144Z" fill="#202020"/>
</svg>
