<svg width="1906" height="2552" viewBox="0 0 1906 2552" fill="none" xmlns="http://www.w3.org/2000/svg">
<path d="M1197.75 771.082C1197.75 771.082 1140.17 728.48 1127.27 771.082C1114.49 813.6 1200.93 822.214 1191.43 856.288C1181.79 890.362 1095.23 896.09 1092.01 833.501C1088.91 771.082 1056.87 827.858 1056.87 873.304C1056.87 918.792 954.352 879.032 986.389 932.964C1018.43 986.897 931.99 1049.4 980.024 1060.77C1028.1 1072.14 963.985 1287.96 931.99 1310.66C899.826 1333.45 922.315 1375.97 864.649 1393.02C806.94 1410.08 746.091 1535 669.33 1554.95C592.399 1574.85 573.134 1611.64 563.629 1574.85C553.912 1537.89 496.246 1543.53 547.59 1517.99C598.806 1492.36 634.026 1441.4 579.542 1452.77C525.1 1464.06 473.884 1515.1 493.021 1543.53C512.37 1571.96 502.993 1625.9 459.584 1654.33C416.132 1682.76 349.003 1722.43 380.955 1750.86C412.992 1779.29 371.323 1841.71 332.921 1818.97C294.434 1796.26 256.075 1736.69 217.588 1765.03C179.102 1793.38 76.7106 1816.17 22.1842 1807.64C-32.2149 1799.19 -112.413 1773.56 -121.918 1810.52C-131.55 1847.31 -206.699 1932.6 -242.895 1941.13C-279.005 1949.66 -305.526 1983.73 -346.177 1992.18C-375.795 1998.37 -432.655 2020.61 -394.296 2051.84C-355.851 2083.07 -277.393 2012.04 -242.937 2051.84C-208.397 2091.64 -179.585 1983.73 -166.855 2009.24C-154.082 2034.87 -64.3791 2012.38 -0.262787 1990.99C63.8535 1969.43 131.025 1921.14 195.184 1938.2C259.257 1955.26 310.432 1971.94 275.212 1997.69C239.95 2023.37 214.321 2083.07 243.133 2091.6C271.987 2100.13 313.657 2165.43 352.101 2151.17C390.545 2137 438.579 2012.04 496.203 2014.92C553.827 2017.72 512.328 1955.26 473.841 1949.62C435.397 1943.89 521.875 1841.63 544.322 1889.96C566.685 1938.2 691.65 1975.08 720.419 1958.06C749.316 1941.09 784.536 1875.44 826.247 1877.01C867.789 1878.58 762.131 1994.94 826.247 1963.79C890.236 1932.56 887.011 1821.81 938.355 1855.88C989.614 1889.96 1002.39 1753.62 1008.75 1810.48C1015.2 1867.17 970.265 1912.66 1008.75 1898.4C1047.24 1884.23 1136.94 1790.58 1117.68 1733.72C1098.41 1676.94 1085.68 1588.85 1146.57 1557.62C1207.42 1526.48 1127.27 1310.58 1184.98 1310.58C1242.6 1310.58 1242.6 1336.84 1245.87 1275.44C1249.05 1214.04 1271.5 1185.7 1316.26 1137.36C1361.16 1089.03 1239.42 935.723 1223.46 910.178C1207.38 884.591 1258.6 799.428 1197.75 771.082Z" fill="#FFFFFD"/>
<path d="M1197.75 771.082C1197.75 771.082 1140.17 728.48 1127.27 771.082C1114.49 813.6 1200.93 822.214 1191.43 856.288C1181.79 890.362 1095.23 896.09 1092.01 833.501C1088.91 771.082 1056.87 827.858 1056.87 873.304C1056.87 918.792 954.352 879.032 986.389 932.964C1018.43 986.897 931.99 1049.4 980.024 1060.77C1028.1 1072.14 963.985 1287.96 931.99 1310.66C899.826 1333.45 922.315 1375.97 864.649 1393.02C806.94 1410.08 746.091 1535 669.33 1554.95C592.399 1574.85 573.134 1611.64 563.629 1574.85C553.912 1537.89 496.246 1543.53 547.59 1517.99C598.806 1492.36 634.026 1441.4 579.542 1452.77C525.1 1464.06 473.884 1515.1 493.021 1543.53C512.37 1571.96 502.993 1625.9 459.584 1654.33C416.132 1682.76 349.003 1722.43 380.955 1750.86C412.992 1779.29 371.323 1841.71 332.921 1818.97C294.434 1796.26 256.075 1736.69 217.588 1765.03C179.102 1793.38 76.7106 1816.17 22.1842 1807.64C-32.2149 1799.19 -112.413 1773.56 -121.918 1810.52C-131.55 1847.31 -206.699 1932.6 -242.895 1941.13C-279.005 1949.66 -305.526 1983.73 -346.177 1992.18C-375.795 1998.37 -432.655 2020.61 -394.296 2051.84C-355.851 2083.07 -277.393 2012.04 -242.937 2051.84C-208.397 2091.64 -179.585 1983.73 -166.855 2009.24C-154.082 2034.87 -64.379 2012.38 -0.262786 1990.99C63.8535 1969.43 131.025 1921.14 195.184 1938.2C259.257 1955.26 310.432 1971.94 275.212 1997.69C239.95 2023.37 214.321 2083.07 243.133 2091.6C271.987 2100.13 313.657 2165.43 352.101 2151.17C390.545 2137 438.579 2012.04 496.203 2014.92C553.827 2017.72 512.328 1955.26 473.841 1949.62C435.397 1943.89 521.875 1841.63 544.322 1889.96C566.684 1938.2 691.65 1975.08 720.419 1958.06C749.316 1941.09 784.536 1875.44 826.247 1877.01C867.789 1878.58 762.131 1994.94 826.247 1963.79C890.236 1932.56 887.011 1821.81 938.355 1855.88C989.614 1889.96 1002.39 1753.62 1008.75 1810.48C1015.2 1867.17 970.265 1912.66 1008.75 1898.4C1047.24 1884.23 1136.94 1790.58 1117.68 1733.72C1098.41 1676.94 1085.68 1588.85 1146.57 1557.62C1207.42 1526.48 1127.27 1310.58 1184.98 1310.58C1242.6 1310.58 1242.6 1336.84 1245.87 1275.44C1249.05 1214.04 1271.5 1185.7 1316.26 1137.36C1361.16 1089.03 1239.42 935.723 1223.46 910.178C1207.38 884.591 1258.6 799.428 1197.75 771.082" stroke="#F5F5F7" stroke-width="6"/>
<path d="M137.51 2008.59C110.395 2013.56 54.129 1985.89 31.7668 2022.76C9.27733 2059.72 -19.5346 2037.7 -35.4894 2060.4C-51.5715 2083.1 -89.9733 2017.8 -115.688 2060.4C-141.275 2103.01 -205.306 2148.41 -170.087 2173.95C-134.867 2199.58 -182.944 2216.64 -154.09 2244.99C-125.193 2273.42 -67.6112 2284.79 -57.8516 2244.99C-48.3042 2205.27 -9.85992 2116.63 34.9917 2139.67C79.8433 2162.71 102.163 2175.23 118.245 2153.33C134.327 2131.44 166.322 2097.32 188.726 2091.68C211.088 2085.9 198.401 1997.13 137.51 2008.59Z" fill="#FFFFFD"/>
<path d="M137.51 2008.59C110.395 2013.56 54.129 1985.89 31.7668 2022.76C9.27733 2059.72 -19.5346 2037.7 -35.4894 2060.4C-51.5715 2083.1 -89.9733 2017.8 -115.688 2060.4C-141.275 2103.01 -205.306 2148.41 -170.087 2173.95C-134.867 2199.58 -182.944 2216.64 -154.09 2244.99C-125.193 2273.42 -67.6112 2284.79 -57.8516 2244.99C-48.3042 2205.27 -9.85993 2116.63 34.9917 2139.67C79.8433 2162.71 102.163 2175.23 118.245 2153.33C134.327 2131.44 166.322 2097.32 188.726 2091.68C211.088 2085.9 198.401 1997.13 137.51 2008.59" stroke="#F5F5F7" stroke-width="6"/>
<path d="M1822.49 418.927C1838.49 404.67 1825.67 373.439 1800 350.737C1774.41 328.036 1822.49 268.46 1844.94 231.458C1867.3 194.584 1758.46 316.663 1719.97 302.491C1681.53 288.233 1665.4 271.218 1607.82 265.532C1550.2 259.888 1406.01 117.907 1348.38 38.3451C1290.67 -41.1321 1229.78 32.7015 1252.27 72.4188C1274.64 112.221 1293.86 174.682 1274.64 217.285C1255.37 259.888 1284.35 291.119 1229.74 308.134C1175.34 325.108 1229.74 353.623 1229.74 413.962C1229.74 474.302 1178.52 458.645 1130.53 433.015C1082.41 407.555 1079.23 407.555 1068.54 433.015C1058.1 458.645 1095.19 475.703 1068.54 492.761C1042.02 509.734 992.795 529.635 970.22 572.238C947.858 614.841 983.162 651.715 1024.79 660.244C1066.37 668.773 970.22 731.277 1002.34 771.037C1034.34 810.754 1069.6 753.979 1085.68 719.905C1101.72 685.831 1140.12 725.548 1162.61 719.905C1184.97 714.261 1171.35 689.226 1143.35 660.244C1134.99 651.63 1120.05 645.392 1091.24 641.107C1062.34 636.779 1043.97 621.29 1052.07 597.783C1060.05 574.402 1095.23 551.7 1121.75 561.63C1148.06 571.559 1146.19 589.466 1149.75 600.668C1158.79 628.759 1194.52 583.61 1239.42 563.709C1284.31 543.808 1341.93 597.783 1389.97 620.569C1438.04 643.271 1508.53 677.344 1508.53 677.344C1534.16 702.889 1508.53 631.941 1527.71 600.668C1546.93 569.437 1607.82 467.174 1643.04 487.032C1678.3 506.848 1761.64 515.462 1777.59 489.833C1793.63 464.288 1822.49 469.932 1886.52 430.257C1950.51 390.497 1806.41 433.015 1822.49 418.927Z" fill="#FFFFFD"/>
<path d="M1822.49 418.927C1838.49 404.67 1825.67 373.439 1800 350.737C1774.41 328.036 1822.49 268.46 1844.94 231.458C1867.3 194.584 1758.46 316.663 1719.97 302.491C1681.53 288.233 1665.4 271.218 1607.82 265.532C1550.2 259.888 1406.01 117.907 1348.38 38.3451C1290.67 -41.1321 1229.78 32.7015 1252.27 72.4188C1274.64 112.221 1293.86 174.682 1274.64 217.285C1255.37 259.888 1284.35 291.119 1229.74 308.134C1175.34 325.108 1229.74 353.623 1229.74 413.963C1229.74 474.302 1178.52 458.644 1130.53 433.015C1082.41 407.555 1079.23 407.555 1068.54 433.015C1058.1 458.644 1095.19 475.703 1068.54 492.761C1042.02 509.734 992.795 529.635 970.22 572.238C947.858 614.841 983.162 651.715 1024.79 660.244C1066.37 668.773 970.22 731.277 1002.34 771.037C1034.34 810.754 1069.6 753.979 1085.68 719.905C1101.72 685.831 1140.12 725.548 1162.61 719.905C1184.97 714.261 1171.35 689.226 1143.35 660.244C1134.99 651.63 1120.05 645.392 1091.24 641.107C1062.34 636.778 1043.97 621.29 1052.07 597.783C1060.05 574.402 1095.23 551.7 1121.75 561.63C1148.06 571.559 1146.19 589.466 1149.75 600.668C1158.79 628.759 1194.52 583.61 1239.42 563.709C1284.31 543.808 1341.93 597.783 1389.97 620.569C1438.04 643.271 1508.53 677.344 1508.53 677.344C1534.16 702.889 1508.53 631.941 1527.71 600.668C1546.93 569.437 1607.82 467.174 1643.04 487.032C1678.3 506.848 1761.64 515.462 1777.59 489.833C1793.63 464.288 1822.49 469.932 1886.52 430.257C1950.51 390.497 1806.41 433.015 1822.49 418.927" stroke="#F5F5F7" stroke-width="6"/>
</svg>
