<svg width="647" height="647" viewBox="0 0 647 647" fill="none" xmlns="http://www.w3.org/2000/svg">
<g filter="url(#filter0_dd)">
<path d="M91.3755 545.155C83.5069 547.228 116.565 531.189 92.9179 527.021C86.7377 525.905 76.4305 531.189 69.3123 522.831C62.2463 514.462 52.0016 521.57 49.6567 529.178C47.2909 536.775 4.82175 538.172 10.3245 543.039C15.8168 547.927 29.1985 573.731 34.7117 568.156C40.2249 562.58 46.0299 546.541 51.3867 554.211C56.7435 561.882 58.3277 577.921 39.4432 593.272C20.5692 608.624 48.8855 599.546 44.9356 617.68C41.0169 635.814 60.7039 634.428 63.8304 635.126C66.9883 635.814 85.0702 625.351 88.228 618.399C91.3859 611.417 110.239 561.892 107.884 557.702C105.539 553.523 99.2231 543.039 91.3755 545.155Z" fill="#940000"/>
<path d="M91.3755 545.155C83.5069 547.228 116.565 531.189 92.9179 527.021C86.7377 525.905 76.4305 531.189 69.3123 522.831C62.2463 514.462 52.0016 521.57 49.6567 529.178C47.2909 536.775 4.82175 538.172 10.3245 543.039C15.8168 547.927 29.1985 573.731 34.7117 568.156C40.2249 562.58 46.0299 546.541 51.3867 554.211C56.7435 561.882 58.3277 577.921 39.4432 593.272C20.5692 608.624 48.8855 599.546 44.9356 617.68C41.0169 635.814 60.7039 634.428 63.8304 635.126C66.9883 635.814 85.0702 625.351 88.228 618.399C91.3859 611.417 110.239 561.892 107.884 557.702C105.539 553.523 99.2231 543.039 91.3755 545.155" stroke="#760000" stroke-width="3"/>
<path d="M461.935 198.491C461.935 198.491 447.793 188.027 444.625 198.491C441.488 208.933 462.717 211.049 460.383 219.418C458.017 227.786 436.756 229.193 435.964 213.821C435.203 198.491 427.335 212.435 427.335 223.597C427.335 234.769 402.155 225.004 410.024 238.25C417.893 251.496 396.663 266.848 408.461 269.641C420.269 272.434 404.521 325.439 396.663 331.015C388.763 336.612 394.287 347.054 380.124 351.244C365.95 355.434 351.005 386.116 332.152 391.014C313.257 395.902 308.525 404.938 306.191 395.902C303.804 386.824 289.641 388.21 302.251 381.936C314.831 375.642 323.481 363.125 310.099 365.918C296.728 368.69 284.149 381.228 288.849 388.21C293.601 395.193 291.298 408.439 280.636 415.422C269.964 422.405 253.477 432.149 261.325 439.132C269.193 446.114 258.959 461.445 249.527 455.859C240.074 450.283 230.653 435.651 221.2 442.613C211.748 449.574 186.6 455.171 173.208 453.076C159.847 451.002 140.15 444.707 137.815 453.785C135.449 462.821 116.992 483.769 108.102 485.863C99.2332 487.958 92.7196 496.327 82.7354 498.401C75.4609 499.923 61.4956 505.384 70.917 513.054C80.3592 520.725 99.6293 503.278 108.092 513.054C116.575 522.83 123.652 496.327 126.778 502.591C129.915 508.885 151.947 503.362 167.695 498.109C183.442 492.815 199.94 480.955 215.698 485.144C231.435 489.334 244.004 493.43 235.353 499.756C226.693 506.061 220.398 520.725 227.474 522.819C234.561 524.914 244.796 540.953 254.238 537.452C263.68 533.971 275.478 503.278 289.63 503.987C303.783 504.675 293.591 489.334 284.138 487.948C274.696 486.541 295.936 461.424 301.449 473.295C306.941 485.144 337.634 494.201 344.7 490.022C351.797 485.853 360.447 469.73 370.692 470.116C380.895 470.502 354.944 499.078 370.692 491.429C386.408 483.758 385.616 456.557 398.226 464.926C410.816 473.295 413.953 439.809 415.516 453.774C417.1 467.698 406.064 478.87 415.516 475.369C424.969 471.888 447.001 448.887 442.269 434.921C437.538 420.977 434.411 399.341 449.367 391.671C464.312 384.021 444.625 330.994 458.798 330.994C472.951 330.994 472.951 337.445 473.754 322.365C474.535 307.285 480.049 300.323 491.044 288.452C502.07 276.582 472.17 238.927 468.251 232.653C464.301 226.369 476.88 205.452 461.935 198.491Z" fill="#940000"/>
<path d="M461.935 198.491C461.935 198.491 447.793 188.027 444.625 198.491C441.488 208.933 462.717 211.049 460.383 219.418C458.017 227.786 436.756 229.193 435.964 213.821C435.203 198.491 427.335 212.435 427.335 223.597C427.335 234.769 402.155 225.004 410.024 238.25C417.893 251.496 396.663 266.848 408.461 269.641C420.269 272.434 404.521 325.439 396.663 331.015C388.763 336.612 394.287 347.054 380.124 351.244C365.95 355.434 351.005 386.116 332.152 391.014C313.257 395.902 308.525 404.938 306.191 395.902C303.804 386.824 289.641 388.21 302.251 381.936C314.831 375.642 323.481 363.125 310.099 365.918C296.728 368.69 284.149 381.228 288.849 388.21C293.601 395.193 291.298 408.439 280.636 415.422C269.964 422.405 253.477 432.149 261.325 439.132C269.193 446.114 258.959 461.445 249.527 455.859C240.074 450.283 230.653 435.651 221.2 442.613C211.748 449.574 186.6 455.171 173.208 453.076C159.847 451.002 140.15 444.707 137.815 453.785C135.449 462.821 116.992 483.769 108.102 485.863C99.2332 487.958 92.7196 496.327 82.7354 498.401C75.4609 499.923 61.4956 505.384 70.917 513.054C80.3592 520.725 99.6293 503.278 108.092 513.054C116.575 522.83 123.652 496.327 126.778 502.591C129.915 508.885 151.947 503.362 167.695 498.109C183.442 492.815 199.94 480.955 215.698 485.144C231.435 489.334 244.004 493.43 235.353 499.756C226.693 506.061 220.398 520.725 227.474 522.819C234.561 524.914 244.796 540.954 254.238 537.452C263.68 533.971 275.478 503.278 289.63 503.987C303.783 504.675 293.591 489.334 284.138 487.948C274.696 486.541 295.936 461.424 301.449 473.295C306.941 485.144 337.634 494.201 344.7 490.022C351.797 485.853 360.447 469.73 370.692 470.116C380.895 470.502 354.944 499.078 370.692 491.429C386.408 483.758 385.616 456.557 398.226 464.926C410.816 473.295 413.953 439.809 415.516 453.774C417.1 467.698 406.064 478.87 415.516 475.369C424.969 471.888 447.001 448.887 442.269 434.921C437.538 420.977 434.411 399.341 449.367 391.67C464.312 384.021 444.625 330.994 458.798 330.994C472.951 330.994 472.951 337.445 473.754 322.365C474.535 307.285 480.049 300.323 491.044 288.452C502.07 276.582 472.17 238.927 468.251 232.653C464.301 226.369 476.88 205.452 461.935 198.491" stroke="#760000" stroke-width="3"/>
<path d="M201.533 502.433C194.873 503.652 181.054 496.857 175.561 505.914C170.038 514.991 162.961 509.582 159.043 515.158C155.093 520.734 145.661 504.694 139.345 515.158C133.061 525.622 117.334 536.773 125.984 543.047C134.635 549.342 122.827 553.531 129.913 560.493C137.011 567.476 151.153 570.269 153.55 560.493C155.895 550.738 165.337 528.967 176.353 534.626C187.369 540.285 192.851 543.36 196.801 537.982C200.751 532.604 208.609 524.225 214.112 522.839C219.604 521.422 216.488 499.619 201.533 502.433Z" fill="#940000"/>
<path d="M201.533 502.433C194.873 503.652 181.054 496.857 175.561 505.914C170.038 514.991 162.961 509.582 159.043 515.158C155.093 520.734 145.661 504.694 139.345 515.158C133.061 525.622 117.334 536.773 125.984 543.047C134.635 549.342 122.827 553.531 129.913 560.493C137.011 567.476 151.153 570.269 153.55 560.493C155.895 550.738 165.337 528.967 176.353 534.626C187.369 540.285 192.851 543.36 196.801 537.982C200.751 532.604 208.609 524.225 214.112 522.839C219.604 521.422 216.488 499.619 201.533 502.433" stroke="#760000" stroke-width="3"/>
<path d="M615.376 111.999C619.305 108.497 616.157 100.826 609.852 95.2506C603.568 89.6749 615.376 75.0426 620.889 65.9547C626.381 56.8981 599.649 86.8818 590.196 83.4009C580.754 79.8992 576.794 75.72 562.651 74.3235C548.498 72.9374 513.085 38.0658 498.932 18.5248C484.758 -0.995415 469.803 17.1386 475.327 26.8935C480.819 36.6692 485.54 52.0102 480.819 62.4738C476.087 72.9374 483.205 80.6079 469.793 84.787C456.432 88.9558 469.793 95.9593 469.793 110.779C469.793 125.599 457.213 121.753 445.426 115.459C433.608 109.205 432.826 109.205 430.2 115.459C427.636 121.753 436.745 125.943 430.2 130.133C423.686 134.301 411.597 139.189 406.052 149.653C400.56 160.116 409.231 169.173 419.455 171.268C429.668 173.363 406.052 188.714 413.942 198.479C421.8 208.234 430.46 194.29 434.41 185.921C438.35 177.552 447.782 187.307 453.305 185.921C458.797 184.535 455.452 178.386 448.574 171.268C446.521 169.152 442.852 167.62 435.776 166.567C428.678 165.504 424.166 161.7 426.156 155.927C428.116 150.184 436.755 144.609 443.269 147.047C449.73 149.486 449.272 153.884 450.147 156.635C452.367 163.535 461.142 152.446 472.169 147.558C483.195 142.67 497.348 155.927 509.146 161.523C520.953 167.099 538.264 175.468 538.264 175.468C544.559 181.742 538.264 164.316 542.975 156.635C547.696 148.965 562.651 123.848 571.302 128.726C579.962 133.593 600.431 135.708 604.349 129.413C608.289 123.14 615.376 124.526 631.102 114.781C646.818 105.016 611.426 115.459 615.376 111.999Z" fill="#940000"/>
<path d="M615.376 111.999C619.305 108.497 616.157 100.826 609.852 95.2506C603.568 89.6749 615.376 75.0426 620.889 65.9547C626.381 56.8981 599.649 86.8818 590.196 83.4009C580.754 79.8992 576.794 75.72 562.651 74.3235C548.498 72.9374 513.085 38.0658 498.932 18.5248C484.758 -0.995415 469.803 17.1386 475.327 26.8935C480.819 36.6692 485.54 52.0102 480.819 62.4738C476.087 72.9374 483.205 80.6079 469.793 84.787C456.432 88.9558 469.793 95.9593 469.793 110.779C469.793 125.599 457.213 121.753 445.426 115.459C433.608 109.205 432.826 109.205 430.2 115.459C427.636 121.753 436.745 125.943 430.2 130.133C423.686 134.301 411.597 139.189 406.052 149.653C400.56 160.116 409.231 169.173 419.455 171.268C429.668 173.363 406.052 188.714 413.942 198.479C421.8 208.234 430.46 194.29 434.41 185.921C438.35 177.552 447.782 187.307 453.305 185.921C458.797 184.535 455.452 178.386 448.574 171.268C446.521 169.152 442.852 167.62 435.776 166.567C428.678 165.504 424.166 161.7 426.156 155.927C428.116 150.184 436.755 144.609 443.269 147.047C449.73 149.486 449.272 153.884 450.147 156.635C452.367 163.535 461.142 152.446 472.169 147.558C483.195 142.67 497.348 155.927 509.146 161.523C520.953 167.099 538.264 175.468 538.264 175.468C544.559 181.742 538.264 164.316 542.975 156.635C547.696 148.965 562.651 123.848 571.302 128.726C579.962 133.593 600.431 135.708 604.349 129.413C608.289 123.14 615.376 124.526 631.102 114.781C646.818 105.016 611.426 115.459 615.376 111.999" stroke="#760000" stroke-width="3"/>
</g>
<defs>
<filter id="filter0_dd" x="0.333008" y="0.343506" width="646.317" height="646.315" filterUnits="userSpaceOnUse" color-interpolation-filters="sRGB">
<feFlood flood-opacity="0" result="BackgroundImageFix"/>
<feColorMatrix in="SourceAlpha" type="matrix" values="0 0 0 0 0 0 0 0 0 0 0 0 0 0 0 0 0 0 127 0"/>
<feOffset dx="4" dy="4"/>
<feGaussianBlur stdDeviation="3"/>
<feColorMatrix type="matrix" values="0 0 0 0 0 0 0 0 0 0 0 0 0 0 0 0 0 0 0.2 0"/>
<feBlend mode="normal" in2="BackgroundImageFix" result="effect1_dropShadow"/>
<feColorMatrix in="SourceAlpha" type="matrix" values="0 0 0 0 0 0 0 0 0 0 0 0 0 0 0 0 0 0 127 0"/>
<feOffset dx="-2" dy="-2"/>
<feGaussianBlur stdDeviation="3"/>
<feColorMatrix type="matrix" values="0 0 0 0 0 0 0 0 0 0 0 0 0 0 0 0 0 0 0.16 0"/>
<feBlend mode="normal" in2="effect1_dropShadow" result="effect2_dropShadow"/>
<feBlend mode="normal" in="SourceGraphic" in2="effect2_dropShadow" result="shape"/>
</filter>
</defs>
</svg>
