<svg width="306" height="55" viewBox="0 0 306 55" fill="none" xmlns="http://www.w3.org/2000/svg">
<path d="M2.414 9.792H13.396C16.0707 9.792 18.1447 10.438 19.618 11.73C21.114 13.022 21.862 14.7787 21.862 17C21.862 19.1987 21.114 20.9553 19.618 22.27C18.122 23.562 16.048 24.208 13.396 24.208H7.718V34H2.414V9.792ZM12.716 20.162C15.4813 20.162 16.864 19.1193 16.864 17.034C16.864 14.926 15.4813 13.872 12.716 13.872H7.718V20.162H12.716ZM36.1022 34.306C33.6995 34.306 31.6028 33.8073 29.8122 32.81C28.0442 31.79 26.6728 30.3393 25.6982 28.458C24.7462 26.5767 24.2702 24.378 24.2702 21.862C24.2702 19.346 24.7462 17.1587 25.6982 15.3C26.6728 13.4413 28.0442 12.0133 29.8122 11.016C31.6028 9.996 33.6995 9.486 36.1022 9.486C38.5048 9.486 40.5902 9.996 42.3582 11.016C44.1262 12.0133 45.4862 13.4413 46.4382 15.3C47.3902 17.1587 47.8662 19.346 47.8662 21.862C47.8662 24.378 47.3902 26.5767 46.4382 28.458C45.4862 30.3393 44.1262 31.79 42.3582 32.81C40.5902 33.8073 38.5048 34.306 36.1022 34.306ZM36.1022 30.158C38.1422 30.158 39.7288 29.444 40.8622 28.016C42.0182 26.588 42.5962 24.5367 42.5962 21.862C42.5962 19.1873 42.0182 17.1473 40.8622 15.742C39.7288 14.3367 38.1422 13.634 36.1022 13.634C34.0622 13.634 32.4642 14.3367 31.3082 15.742C30.1748 17.1473 29.6082 19.1873 29.6082 21.862C29.6082 24.5593 30.1748 26.622 31.3082 28.05C32.4642 29.4553 34.0622 30.158 36.1022 30.158ZM86.2314 9.792L77.6294 34H73.3794L67.7354 17.986L62.0574 34H57.8074L49.2054 9.792H54.6114L60.1874 26.52L66.0354 9.792H69.7414L75.4534 26.758L81.1654 9.792H86.2314ZM88.9506 9.792H98.3006C100.953 9.792 103.231 10.268 105.135 11.22C107.039 12.172 108.489 13.5547 109.487 15.368C110.507 17.1813 111.017 19.346 111.017 21.862C111.017 24.4007 110.518 26.5767 109.521 28.39C108.523 30.2033 107.073 31.5973 105.169 32.572C103.265 33.524 100.975 34 98.3006 34H88.9506V9.792ZM97.9606 29.716C103.129 29.716 105.713 27.098 105.713 21.862C105.713 16.6713 103.129 14.076 97.9606 14.076H94.2546V29.716H97.9606ZM114.841 9.792H131.535V13.906H120.009V19.618H130.821V23.766H120.009V29.886H131.535V34H114.841V9.792ZM155.289 34H149.679L146.585 25.942C146.335 25.3073 145.95 24.8653 145.429 24.616C144.93 24.3667 144.295 24.242 143.525 24.242H140.091V34H134.855V9.792H145.633C148.443 9.792 150.574 10.404 152.025 11.628C153.475 12.852 154.201 14.6087 154.201 16.898C154.201 18.5073 153.77 19.89 152.909 21.046C152.07 22.202 150.857 23.0293 149.271 23.528C150.699 23.8227 151.73 24.8087 152.365 26.486L155.289 34ZM144.851 20.196C146.369 20.196 147.48 19.9467 148.183 19.448C148.885 18.9267 149.237 18.122 149.237 17.034C149.237 15.946 148.885 15.1527 148.183 14.654C147.48 14.1327 146.369 13.872 144.851 13.872H140.023V20.196H144.851Z" fill="#202020"/>
<path d="M165.259 37.094C166.143 37.2527 166.959 37.332 167.707 37.332C168.863 37.332 169.657 37.0373 170.087 36.448C170.518 35.8587 170.733 34.816 170.733 33.32V9.792H174.269V33.354C174.269 35.7793 173.816 37.5473 172.909 38.658C172.003 39.7687 170.484 40.324 168.353 40.324C167.311 40.324 166.279 40.2333 165.259 40.052V37.094ZM195.477 28.016H183.237L180.653 34H177.083L187.861 9.792H190.819L201.631 34H198.061L195.477 28.016ZM194.287 25.228L189.357 13.702L184.427 25.228H194.287ZM204.426 9.792H214.49C217.029 9.792 219.001 10.4153 220.406 11.662C221.834 12.886 222.548 14.5633 222.548 16.694C222.548 18.8247 221.823 20.5133 220.372 21.76C218.944 22.984 216.983 23.596 214.49 23.596H207.928V34H204.426V9.792ZM214.082 20.808C215.759 20.808 217.017 20.4567 217.856 19.754C218.717 19.0513 219.148 18.0313 219.148 16.694C219.148 15.3793 218.717 14.3707 217.856 13.668C217.017 12.9653 215.759 12.614 214.082 12.614H207.928V20.808H214.082ZM239.787 28.016H227.547L224.963 34H221.393L232.171 9.792H235.129L245.941 34H242.371L239.787 28.016ZM238.597 25.228L233.667 13.702L228.737 25.228H238.597ZM268.592 9.792V34H265.906L252.034 15.708V34H248.736V9.792H251.388L265.294 28.118V9.792H268.592Z" fill="#940000"/>
<path d="M298.018 18.7507C297.879 18.5192 297.685 18.3281 297.454 18.1956C297.224 18.0632 296.964 17.9936 296.701 17.9936C296.437 17.9936 296.178 18.0632 295.947 18.1956C295.717 18.3281 295.523 18.5192 295.384 18.7507L293.835 21.3585L288.738 12.3992C288.6 12.1605 288.405 11.9627 288.172 11.8253C287.938 11.688 287.674 11.6157 287.405 11.6157C287.136 11.6157 286.872 11.688 286.639 11.8253C286.405 11.9627 286.21 12.1605 286.073 12.3992L275.228 31.5977C275.092 31.8402 275.021 32.1152 275.021 32.3953C275.02 32.6753 275.091 32.9505 275.226 33.1934C275.361 33.4364 275.555 33.6385 275.789 33.7796C276.023 33.9207 276.289 33.9958 276.56 33.9975H304.447C304.724 33.9981 304.996 33.9221 305.234 33.7774C305.473 33.6326 305.67 33.4245 305.804 33.1746C305.939 32.9247 306.006 32.6422 305.999 32.3565C305.992 32.0707 305.91 31.7921 305.764 31.5497L298.018 18.7507ZM288.102 30.7978H279.256L287.405 16.3989L291.96 24.3983L290.023 27.598L288.102 30.7978Z" fill="#202020"/>
<path d="M300.674 15C301.536 15 302.378 14.7361 303.095 14.2416C303.812 13.7471 304.37 13.0443 304.7 12.2221C305.03 11.3998 305.116 10.495 304.948 9.6221C304.78 8.74918 304.365 7.94736 303.755 7.31802C303.146 6.68869 302.369 6.2601 301.524 6.08647C300.679 5.91283 299.803 6.00195 299.006 6.34254C298.21 6.68314 297.53 7.25991 297.051 7.99994C296.572 8.73996 296.316 9.60999 296.316 10.5C296.316 11.6935 296.776 12.8381 297.593 13.682C298.41 14.5259 299.518 15 300.674 15ZM300.674 8.25C301.105 8.25 301.526 8.38196 301.884 8.6292C302.243 8.87643 302.522 9.22783 302.687 9.63896C302.852 10.0501 302.895 10.5025 302.811 10.939C302.727 11.3754 302.519 11.7763 302.215 12.091C301.91 12.4057 301.522 12.62 301.099 12.7068C300.676 12.7936 300.238 12.749 299.84 12.5787C299.442 12.4084 299.102 12.12 298.862 11.75C298.623 11.38 298.495 10.945 298.495 10.5C298.495 9.90326 298.725 9.33097 299.133 8.90901C299.542 8.48705 300.096 8.25 300.674 8.25Z" fill="#202020"/>
<path d="M287.601 11C287.02 11 286.827 11.4182 286.439 11.8364L275.206 31.7C275.013 31.9091 275.013 32.3273 275.013 32.5364C275.013 33.5818 275.787 34 276.368 34H298.834C299.609 34 300.19 33.5818 300.19 32.5364C300.19 32.1182 300.19 32.1182 299.996 31.7L288.957 11.8364C288.57 11.4182 288.182 11 287.601 11ZM287.601 14.1364L293.992 25.6364H292.443L289.538 22.5L287.601 25.6364L285.665 22.5L282.76 25.6364H281.016L287.601 14.1364Z" fill="#202020"/>
</svg>
